<?xml version="1.0" standalone="no"?>
<!DOCTYPE svg PUBLIC "-//W3C//DTD SVG 20010904//EN"
 "http://www.w3.org/TR/2001/REC-SVG-20010904/DTD/svg10.dtd">
<svg version="1.0" xmlns="http://www.w3.org/2000/svg"
 width="246.000000pt" height="280.000000pt" viewBox="0 0 246.000000 280.000000"
 preserveAspectRatio="xMidYMid meet">

<g transform="translate(0.000000,280.000000) scale(0.100000,-0.100000)"
fill="#000000" stroke="none">
<path d="M268 2643 c-39 -6 -41 -37 -6 -86 11 -15 58 -98 105 -185 151 -277
288 -459 398 -529 25 -15 45 -31 45 -35 0 -3 -85 -163 -188 -355 -103 -191
-191 -356 -195 -366 -4 -10 -2 -27 3 -38 10 -18 23 -19 198 -19 103 0 204 5
225 11 65 18 111 71 233 273 122 202 150 244 157 236 2 -3 46 -81 97 -175 122
-223 173 -301 212 -325 30 -18 51 -20 218 -20 199 0 230 7 230 51 0 11 -84
183 -187 381 l-187 362 25 15 c53 33 172 164 232 257 35 55 103 171 152 259
49 88 104 184 123 213 28 41 33 55 23 65 -8 8 -62 12 -184 12 -171 0 -172 0
-224 -29 -45 -25 -180 -148 -203 -187 -11 -17 -12 -16 -44 48 -33 67 -77 116
-120 137 -49 23 -353 23 -402 0 -43 -21 -87 -70 -120 -137 -15 -29 -28 -54
-30 -56 -1 -2 -18 14 -36 35 -58 68 -131 132 -183 161 -48 26 -57 28 -195 29
-80 1 -157 0 -172 -3z m357 -37 c22 -11 84 -64 139 -118 54 -55 99 -98 100
-96 2 2 10 23 20 48 23 61 65 120 104 147 42 28 113 36 265 31 168 -6 202 -26
267 -163 l30 -63 98 97 c132 132 139 135 341 139 90 2 168 -1 173 -6 5 -5 -7
-33 -31 -68 -21 -32 -74 -124 -116 -204 -135 -254 -244 -405 -347 -482 -29
-22 -54 -41 -56 -43 -1 -1 83 -167 188 -369 104 -202 190 -371 190 -376 0 -5
-7 -16 -16 -24 -13 -13 -46 -16 -202 -16 -203 0 -215 3 -261 61 -11 14 -74
122 -139 240 -66 118 -127 215 -135 217 -10 2 -59 -69 -147 -213 -73 -119
-145 -229 -161 -244 -54 -54 -94 -62 -299 -59 -168 3 -185 5 -188 21 -2 10 85
181 192 382 108 200 196 367 196 372 0 4 -20 19 -45 32 -105 56 -263 264 -409
540 -42 79 -88 157 -101 173 -14 16 -25 38 -25 49 0 20 6 20 168 17 140 -2
173 -6 207 -22z"/>
<path d="M1020 2443 l-35 -17 28 -4 c37 -5 57 3 57 23 0 19 -6 18 -50 -2z"/>
<path d="M1336 2446 c4 -11 18 -16 47 -16 50 0 39 18 -17 27 -31 5 -35 3 -30
-11z"/>
<path d="M1007 2372 c-35 -38 -13 -132 30 -132 59 0 78 40 52 107 -17 46 -53
57 -82 25z m83 -82 c0 -45 -63 -57 -81 -16 -9 20 -7 27 13 48 21 21 25 22 46
10 14 -9 22 -24 22 -42z"/>
<path d="M1330 2358 c-28 -47 -27 -95 4 -109 34 -16 72 -4 80 23 25 97 -38
161 -84 86z m50 -35 c0 -9 6 -13 15 -9 18 6 20 -16 5 -45 -11 -19 -35 -24 -64
-13 -24 9 -20 59 7 77 25 17 37 13 37 -10z"/>
<path d="M1181 2226 c-14 -8 -19 -16 -13 -20 6 -3 14 -1 18 5 4 7 21 9 48 5
27 -5 38 -4 31 3 -18 17 -59 21 -84 7z"/>
<path d="M1009 2097 c17 -22 35 -21 52 1 13 16 12 16 -4 3 -16 -13 -22 -13
-40 -1 -20 12 -21 12 -8 -3z"/>
<path d="M480 869 c0 -8 33 -138 73 -289 l73 -275 33 -3 c64 -6 82 26 146 266
23 90 46 166 49 169 14 14 26 -18 66 -170 61 -232 79 -267 143 -267 l34 0 72
275 c39 151 74 282 77 290 7 18 -42 21 -79 4 -33 -15 -37 -27 -83 -211 -21
-87 -41 -158 -44 -158 -3 0 -16 42 -29 93 -58 224 -77 259 -144 259 -45 0 -73
-16 -91 -50 -8 -15 -31 -91 -51 -170 -21 -78 -39 -141 -41 -140 -1 2 -23 81
-48 177 -25 96 -52 181 -59 189 -21 20 -97 29 -97 11z"/>
<path d="M1510 745 c50 -75 93 -142 96 -150 3 -7 -37 -77 -89 -154 -52 -78
-92 -143 -89 -145 15 -8 86 4 108 19 14 9 50 54 81 100 31 47 61 85 68 85 7 0
39 -40 71 -90 33 -49 68 -94 79 -100 26 -13 105 -20 105 -9 0 5 -42 71 -94
146 l-94 137 99 148 99 148 -42 0 c-63 -1 -86 -18 -153 -116 -33 -48 -65 -89
-71 -91 -6 -2 -39 39 -73 91 -65 100 -87 116 -164 116 -27 0 -26 -3 63 -135z"/>
<path d="M1315 747 l-40 -23 0 -214 0 -215 25 3 c13 1 35 9 47 17 23 15 23 17
23 235 0 121 -3 220 -7 220 -5 0 -26 -11 -48 -23z"/>
<path d="M1655 210 c-15 -16 -17 -26 -9 -48 11 -33 54 -42 75 -16 13 16 12 17
-6 10 -11 -4 -24 -8 -28 -9 -15 -3 -31 29 -24 47 6 14 14 16 39 10 29 -6 31
-5 19 10 -18 22 -44 20 -66 -4z"/>
<path d="M1757 212 c-34 -38 -15 -82 35 -82 40 0 58 39 34 75 -19 29 -46 32
-69 7z m58 -23 c10 -30 -18 -57 -39 -39 -16 13 -21 42 -9 53 14 14 42 6 48
-14z"/>
<path d="M1857 223 c-11 -10 -8 -93 3 -93 6 0 10 15 11 33 l1 32 10 -32 c13
-40 23 -42 36 -5 l10 27 1 -27 c2 -50 21 -29 21 22 0 59 -24 70 -38 18 -10
-34 -12 -32 -28 20 -4 13 -17 16 -27 5z"/>
</g>
</svg>
